<?xml version="1.0" standalone="no"?>
<!DOCTYPE svg PUBLIC "-//W3C//DTD SVG 20010904//EN"
 "http://www.w3.org/TR/2001/REC-SVG-20010904/DTD/svg10.dtd">
<svg version="1.0" xmlns="http://www.w3.org/2000/svg"
 width="209.000000pt" height="209.000000pt" viewBox="0 0 209.000000 209.000000"
 preserveAspectRatio="xMidYMid meet">
<metadata>
Created by potrace 1.11, written by Peter Selinger 2001-2013
</metadata>
<g transform="translate(0.000000,209.000000) scale(0.100000,-0.100000)"
fill="#000000" stroke="none">
<path d="M780 1893 c-58 -12 -116 -25 -130 -28 -41 -10 -174 -67 -199 -87 -13
-10 -28 -18 -33 -18 -21 0 -175 -131 -220 -188 -80 -100 -172 -276 -187 -357
-19 -98 -4 -302 28 -380 39 -95 92 -191 131 -237 36 -42 131 -132 171 -161 24
-17 46 -35 47 -39 2 -5 8 -6 13 -2 5 3 9 0 9 -5 0 -6 5 -11 10 -11 6 0 27 -11
48 -24 20 -12 42 -24 47 -25 6 -2 25 -9 44 -17 45 -19 115 -42 143 -48 13 -3
34 -8 48 -11 14 -4 35 -7 48 -8 12 -1 22 -3 22 -7 0 -3 12 -6 28 -6 165 -8
244 -9 248 -3 2 4 12 6 22 4 9 -1 42 1 72 7 30 5 64 11 75 13 94 16 286 105
385 178 92 67 230 216 230 246 0 6 4 11 8 11 7 0 50 78 49 90 0 3 6 16 13 30
8 14 15 30 16 35 1 6 7 30 14 55 7 25 14 54 15 65 1 11 3 22 5 25 5 13 2 130
-5 175 -4 28 -9 59 -10 70 -2 11 -4 21 -5 23 -2 1 -4 7 -5 12 -1 6 -4 12 -5
15 -1 3 -3 8 -4 13 -1 4 -7 17 -14 30 -7 12 -10 22 -7 22 8 0 -45 97 -88 161
-92 138 -291 280 -492 349 -171 59 -407 73 -585 33z"/>
</g>
</svg>
